<?xml version="1.0" standalone="no"?>
<!DOCTYPE svg PUBLIC "-//W3C//DTD SVG 20010904//EN"
 "http://www.w3.org/TR/2001/REC-SVG-20010904/DTD/svg10.dtd">
<svg version="1.0" xmlns="http://www.w3.org/2000/svg"
 width="600.000000pt" height="600.000000pt" viewBox="0 0 600.000000 600.000000"
 preserveAspectRatio="xMidYMid meet">
<g transform="translate(0.000000,600.000000) scale(0.100000,-0.100000)"
fill="#000000" stroke="none">
<path d="M5035 5848 l0 -153 240 0 240 -1 -237 3 -237 3 -4 150 -3 150 1 -152z"/>
<path d="M2983 5915 c-6 -33 -17 -94 -23 -135 -6 -41 -15 -88 -20 -105 -5 -16
-12 -55 -14 -85 -3 -30 -10 -82 -16 -115 -24 -136 -27 -155 -20 -155 9 0 15
32 70 370 23 135 39 254 38 265 -2 11 -8 -7 -15 -40z"/>
<path d="M3021 5944 c-1 -17 3 -55 9 -85 5 -30 12 -70 15 -89 4 -19 13 -71 21
-115 8 -44 17 -104 21 -133 3 -29 9 -54 13 -57 8 -5 0 105 -10 125 -4 8 -5 27
-3 43 2 15 0 27 -6 27 -9 0 -10 5 -11 98 -1 28 -5 52 -11 52 -5 0 -9 12 -9 28
-1 15 -7 52 -15 82 -10 43 -13 48 -14 24z"/>
<path d="M5695 5323 l0 -287 30 -6 c17 -3 86 -3 155 0 l125 6 -152 2 -153 2
-3 285 -2 285 0 -287z"/>
<path d="M1657 5569 c7 -7 15 -10 18 -7 3 3 -2 9 -12 12 -14 6 -15 5 -6 -5z"/>
<path d="M1400 5540 c6 -11 13 -20 16 -20 2 0 0 9 -6 20 -6 11 -13 20 -16 20
-2 0 0 -9 6 -20z"/>
<path d="M1356 5475 c-9 -19 -24 -35 -33 -35 -13 0 -14 -3 -5 -12 9 -9 12 -91
12 -307 0 -272 2 -298 19 -327 25 -42 87 -59 154 -44 27 6 53 8 58 5 13 -8 11
9 -2 22 -8 8 -8 17 1 32 20 39 10 51 -31 37 -31 -11 -38 -10 -48 3 -10 14 -11
13 -7 -6 6 -32 -9 -38 -34 -13 -19 19 -20 32 -20 303 0 207 3 286 12 295 9 9
8 12 -4 12 -8 0 -21 14 -28 30 -18 43 -26 44 -44 5z m41 -339 c1 -237 4 -298
15 -309 22 -23 60 -40 67 -30 3 4 18 14 34 20 21 10 27 10 26 0 -2 -39 -16
-47 -90 -49 -36 -1 -93 28 -84 42 3 5 0 12 -6 16 -8 4 -7 9 2 15 11 7 11 9 1
9 -16 0 -14 565 3 593 25 43 31 -14 32 -307z"/>
<path d="M1426 5497 c3 -10 9 -15 12 -12 3 3 0 11 -7 18 -10 9 -11 8 -5 -6z"/>
<path d="M1644 5477 c-12 -25 -24 -37 -38 -37 -15 0 -17 -3 -8 -9 10 -6 11
-13 1 -34 -26 -57 47 -108 99 -70 31 23 40 57 21 79 -10 13 -10 17 2 25 11 7
11 9 -3 9 -10 0 -26 16 -37 37 l-19 38 -18 -38z m40 -49 c24 -34 21 -77 -6
-87 -22 -8 -54 -3 -44 6 3 3 -1 12 -9 20 -12 11 -12 18 -2 35 30 54 39 57 61
26z"/>
<path d="M1300 5490 c0 -5 5 -10 11 -10 5 0 7 5 4 10 -3 6 -8 10 -11 10 -2 0
-4 -4 -4 -10z"/>
<path d="M4547 5476 c-9 -14 -17 -30 -17 -36 0 -8 -12 -9 -32 -6 -33 6 -33 6
-10 -10 22 -16 22 -17 22 -317 0 -274 -2 -301 -17 -313 -17 -12 -17 -13 3 -14
14 0 26 -10 34 -30 7 -16 16 -30 20 -30 5 0 14 14 22 30 7 17 21 30 30 30 20
0 25 16 7 22 -12 4 -14 55 -19 351 -1 99 -5 155 -12 151 -5 -3 -7 -12 -4 -20
3 -8 2 -14 -2 -14 -4 0 -5 -108 -2 -241 4 -192 2 -243 -8 -252 -10 -8 -16 -7
-22 3 -6 10 -8 607 -1 643 0 5 6 5 13 1 8 -5 9 -2 5 9 -3 10 -3 17 1 17 11 0
41 -37 35 -43 -5 -6 23 -61 45 -89 8 -9 11 -22 6 -29 -4 -7 -3 -10 3 -6 6 4
18 -13 28 -38 10 -24 22 -42 27 -39 7 5 13 -18 9 -39 -1 -5 3 -6 9 -2 6 3 10
-3 10 -15 0 -12 4 -18 10 -15 6 4 9 3 8 -2 -4 -14 13 -53 23 -53 5 0 9 -5 9
-10 0 -6 10 -24 21 -40 13 -16 19 -36 15 -45 -3 -9 -2 -13 4 -10 5 3 16 -10
25 -29 15 -31 45 -57 45 -38 -1 10 -62 122 -173 315 -53 92 -97 171 -97 174 0
4 8 15 17 25 17 19 16 19 -9 13 -23 -6 -29 -2 -46 30 l-18 37 -17 -26z"/>
<path d="M4916 5475 c-9 -13 -16 -29 -16 -35 0 -7 -8 -9 -20 -5 -23 7 -26 -3
-5 -19 11 -9 15 -50 17 -211 1 -110 5 -225 8 -255 12 -118 20 6 16 241 -4 231
0 277 25 252 9 -9 12 -94 11 -322 -1 -299 -5 -351 -32 -351 -9 0 -65 96 -59
102 2 2 -6 17 -19 35 -12 17 -22 34 -22 38 0 4 -9 20 -21 36 -11 16 -17 29
-12 29 4 1 -3 10 -16 20 -13 11 -21 20 -17 20 3 0 -7 21 -22 48 -16 26 -45 79
-66 117 -41 75 -66 108 -66 87 0 -17 15 -45 137 -259 134 -237 131 -230 107
-248 -18 -14 -17 -14 11 -15 24 0 33 -6 43 -30 8 -16 17 -30 22 -30 5 0 14 14
22 30 10 24 19 30 43 30 27 1 28 2 13 14 -16 12 -18 39 -18 315 0 258 2 302
15 307 8 4 13 10 10 15 -3 4 -12 6 -20 2 -10 -3 -20 6 -30 31 -8 20 -17 36
-19 36 -2 0 -11 -11 -20 -25z"/>
<path d="M410 5470 c0 -5 5 -10 11 -10 5 0 7 5 4 10 -3 6 -8 10 -11 10 -2 0
-4 -4 -4 -10z"/>
<path d="M376 5435 c8 -37 14 -45 14 -19 0 10 -5 26 -10 34 -8 11 -9 7 -4 -15z"/>
<path d="M802 5440 c-12 -19 -22 -20 -197 -20 l-185 0 0 -320 0 -320 185 2
c130 1 189 -2 197 -10 18 -18 27 -14 21 7 -4 15 3 22 32 31 28 9 33 15 25 25
-6 7 -22 16 -36 19 -16 4 -24 12 -21 20 9 22 -5 28 -18 9 -11 -14 -34 -17
-154 -17 l-141 -1 0 108 0 107 112 0 c90 0 115 -3 130 -17 17 -15 18 -15 18 8
0 20 8 28 37 38 l37 14 -37 19 c-20 10 -37 26 -37 35 0 15 -1 15 -18 0 -15
-14 -40 -17 -130 -17 l-112 0 0 90 0 90 145 0 c120 0 147 -3 151 -15 8 -20 23
-9 18 13 -4 12 4 21 25 29 17 6 31 16 31 21 0 11 -41 28 -50 21 -3 -2 -7 9
-10 24 -5 27 -5 27 -18 7z m21 -44 c17 -13 17 -14 0 -21 -10 -5 -81 -7 -158
-6 -170 3 -174 1 -176 -100 -2 -116 2 -126 51 -129 100 -5 187 -4 183 3 -9 14
35 7 48 -9 22 -27 -8 -34 -133 -33 -78 1 -122 -2 -131 -10 -11 -8 -15 -38 -16
-103 -1 -50 -4 -94 -6 -98 -2 -4 5 -16 15 -28 18 -20 30 -21 162 -21 79 0 149
0 156 -1 9 0 10 -5 4 -16 -7 -13 -35 -16 -186 -16 -98 0 -179 2 -181 4 -2 2
-5 133 -7 291 l-3 288 23 6 c13 3 93 3 179 0 95 -3 151 -2 142 4 -12 7 -12 9
1 9 8 -1 23 -7 33 -14z"/>
<path d="M4000 5434 c0 -14 -12 -26 -37 -38 l-38 -18 38 -19 c25 -13 37 -26
37 -40 0 -17 3 -19 14 -10 12 10 14 -3 14 -84 0 -80 -3 -94 -14 -84 -11 9 -14
7 -14 -9 0 -12 -11 -24 -30 -32 -16 -7 -30 -16 -30 -20 0 -4 14 -13 30 -20 19
-8 30 -20 30 -32 0 -15 3 -18 13 -10 9 8 12 -13 12 -101 0 -89 -3 -115 -15
-124 -13 -11 -12 -12 5 -13 13 0 25 -11 33 -30 8 -16 17 -30 22 -30 4 0 13 14
20 30 8 20 20 30 33 30 16 0 18 3 9 12 -8 8 -12 48 -12 112 0 56 -3 111 -6
124 -14 50 -20 15 -19 -105 1 -131 -6 -159 -35 -141 -12 8 -14 28 -12 105 4
114 0 134 -33 167 l-26 26 28 31 c24 26 29 41 33 109 4 60 1 84 -11 104 -9 14
-19 23 -22 19 -4 -3 -7 1 -7 10 0 9 -5 19 -12 23 -7 5 -8 3 -3 -6 6 -9 4 -11
-5 -5 -24 15 20 37 60 29 37 -7 189 -6 201 2 4 2 11 0 14 -6 4 -6 21 -10 39
-8 38 2 103 -42 117 -80 26 -67 -1 -158 -56 -190 -29 -18 -86 -36 -101 -32
-12 3 -43 -43 -37 -54 9 -14 84 -96 143 -156 43 -43 65 -81 39 -64 -9 5 -10 2
-6 -10 12 -30 -27 -1 -79 60 -27 31 -64 71 -81 89 -18 18 -33 38 -33 45 0 7
-3 11 -6 7 -9 -9 -33 16 -26 28 3 6 2 7 -3 3 -4 -4 -16 3 -25 15 -10 12 -21
19 -25 15 -4 -4 9 -24 28 -45 190 -210 196 -217 186 -235 -10 -19 5 -26 16 -8
4 6 17 3 35 -10 41 -29 50 -26 46 19 -3 34 -1 40 18 44 19 3 18 5 -8 16 -16 6
-38 22 -48 34 -11 12 -51 54 -89 93 -38 40 -69 74 -69 77 0 2 19 8 43 11 61 9
118 45 145 91 19 33 22 51 20 107 -3 61 -7 71 -38 103 -46 48 -91 58 -247 60
-119 1 -134 3 -148 21 -14 19 -14 19 -15 -2z"/>
<path d="M5036 5427 c3 -10 9 -15 12 -12 3 3 0 11 -7 18 -10 9 -11 8 -5 -6z"/>
<path d="M5225 5426 c-68 -22 -103 -44 -139 -92 -50 -65 -70 -133 -70 -229 2
-149 76 -272 190 -315 66 -24 113 -25 183 -4 107 31 191 150 191 271 l0 63
-117 0 c-94 0 -120 3 -135 17 -17 15 -18 15 -18 -5 0 -12 -6 -22 -13 -22 -7 0
-22 -6 -33 -14 -18 -14 -17 -15 18 -30 29 -12 35 -20 31 -36 -6 -23 12 -28 21
-5 4 12 23 15 81 15 l77 0 -7 -32 c-21 -97 -82 -151 -173 -152 -131 -2 -212
113 -200 283 14 193 188 284 316 166 33 -30 36 -36 25 -54 -19 -31 -16 -35 11
-18 20 14 26 14 35 3 7 -8 21 -16 33 -19 19 -5 20 -3 14 32 -5 34 -3 40 17 46
l22 8 -23 4 c-13 3 -45 26 -70 53 -70 72 -170 97 -267 66z m145 -19 c28 -7 70
-30 70 -38 0 -5 7 -6 15 -3 8 4 15 1 15 -5 0 -5 12 -21 27 -35 29 -27 37 -62
16 -70 -8 -3 -11 -1 -8 4 3 6 1 10 -6 10 -7 0 -27 16 -45 35 -17 19 -29 35
-25 35 3 0 -7 7 -24 16 -54 28 -127 30 -182 3 -26 -12 -54 -31 -61 -41 -7 -10
-18 -16 -23 -13 -5 3 -6 -1 -3 -9 3 -9 2 -16 -3 -16 -14 0 -41 -89 -47 -157
-4 -46 -1 -75 13 -116 11 -31 16 -59 13 -63 -4 -4 -2 -4 5 0 7 3 14 -2 18 -13
7 -23 57 -75 76 -79 8 -2 16 -8 17 -13 2 -5 8 -7 12 -4 5 3 27 1 49 -4 24 -5
43 -5 47 0 3 5 16 9 28 9 13 0 29 7 36 15 7 8 17 15 22 15 19 0 35 25 89 132
6 11 3 23 -9 37 -14 17 -30 21 -99 22 -56 1 -87 6 -94 15 -14 17 -22 16 133
18 l118 1 0 -41 c0 -46 -42 -151 -68 -171 -9 -7 -13 -13 -8 -13 12 0 -34 -35
-59 -44 -11 -4 -22 -7 -24 -6 -2 1 -7 -3 -11 -9 -9 -16 -89 -20 -149 -9 -31 7
-62 21 -82 39 -18 16 -36 29 -41 29 -4 0 -8 7 -8 15 0 8 -4 15 -10 15 -5 0
-12 11 -16 25 -4 15 -11 22 -18 18 -6 -3 -8 -3 -4 2 4 4 1 23 -7 42 -29 68 -8
293 26 293 6 0 8 4 5 8 -8 13 57 78 95 95 80 36 122 41 189 24z"/>
<path d="M900 5419 c0 -5 4 -9 9 -9 5 0 17 -3 27 -7 11 -4 15 -3 11 4 -9 14
-47 24 -47 12z"/>
<path d="M3084 5318 c-35 -80 -52 -108 -66 -108 -10 0 -18 -4 -18 -10 0 -5 9
-10 19 -10 16 0 20 -8 23 -42 l3 -41 33 28 c25 21 35 25 46 16 9 -7 17 -8 20
-3 3 6 0 15 -8 21 -12 10 -8 29 24 119 21 59 41 114 45 124 5 13 0 16 -34 15
l-39 -2 -48 -107z m79 73 c3 8 5 2 4 -13 -1 -16 -5 -28 -9 -28 -4 0 -8 -8 -8
-18 0 -10 -3 -22 -7 -26 -4 -3 -8 -12 -9 -19 -6 -37 -47 -127 -59 -127 -19 0
-25 35 -9 66 8 14 14 33 14 40 0 8 3 14 8 14 6 0 44 80 48 103 1 4 2 10 3 15
1 4 5 1 10 -7 7 -11 9 -11 14 0z"/>
<path d="M910 5365 c-16 -19 -1 -19 24 0 16 12 17 15 4 15 -8 0 -21 -7 -28
-15z"/>
<path d="M4109 5354 c-13 -15 -16 -40 -16 -107 0 -48 -3 -90 -6 -93 -12 -12
37 -53 62 -53 101 2 151 12 177 34 15 13 31 22 36 19 4 -3 5 2 2 10 -3 9 -1
16 5 16 20 0 13 91 -10 125 -29 42 -61 55 -154 62 -70 5 -82 3 -96 -13z m177
-20 c41 -6 62 -30 69 -79 12 -83 -38 -123 -158 -126 l-79 -2 1 106 c0 59 0
109 1 112 0 5 105 -1 166 -11z"/>
<path d="M4691 5337 c17 -32 22 -35 14 -8 -6 18 -4 22 6 16 8 -5 10 -4 6 0 -4
5 -14 10 -22 11 -12 2 -13 -2 -4 -19z"/>
<path d="M865 5329 c-4 -6 -5 -12 -2 -15 2 -3 7 2 10 11 7 17 1 20 -8 4z"/>
<path d="M820 5290 c-8 -5 -10 -10 -5 -10 6 0 17 5 25 10 8 5 11 10 5 10 -5 0
-17 -5 -25 -10z"/>
<path d="M1041 5269 c-18 -5 -54 -31 -81 -58 -56 -56 -75 -118 -68 -215 11
-126 84 -206 204 -223 59 -8 210 25 188 42 -13 9 -13 15 1 48 17 42 10 46 -41
27 -21 -9 -29 -7 -40 7 -13 16 -14 16 -8 -8 5 -24 2 -27 -30 -33 -91 -17 -169
42 -181 137 -17 136 58 222 177 202 37 -7 39 -9 34 -34 -6 -23 -5 -24 7 -8 13
16 17 16 51 2 35 -15 36 -15 36 7 0 13 -5 30 -10 38 -6 10 -4 20 7 32 15 17
14 18 -18 18 -19 0 -40 5 -46 11 -16 16 -140 21 -182 8z m167 -29 c2 -5 7 -8
12 -5 10 6 40 -22 40 -37 0 -6 -3 -8 -6 -5 -4 3 -16 1 -28 -5 -11 -6 -18 -7
-14 -3 17 18 -23 35 -80 35 -62 0 -78 -8 -145 -71 -26 -25 -27 -29 -24 -115 2
-78 6 -94 31 -131 16 -24 35 -43 43 -43 8 0 11 -5 8 -11 -4 -6 -1 -10 6 -8 31
4 60 -2 55 -10 -7 -11 77 -1 84 10 7 10 62 31 67 25 3 -2 2 -13 -1 -24 -9 -28
-62 -47 -131 -46 -60 1 -122 23 -107 39 4 5 1 5 -6 1 -17 -10 -38 8 -68 60
-21 36 -25 55 -25 129 0 51 4 92 11 100 7 8 8 20 4 26 -4 8 -3 9 4 5 7 -4 14
3 18 18 3 14 15 28 25 31 10 4 19 11 19 16 0 6 4 8 9 5 5 -4 11 -1 13 5 9 26
178 34 186 9z"/>
<path d="M1911 5249 c-32 -22 -42 -36 -38 -50 3 -11 1 -16 -5 -13 -5 3 -8 -2
-7 -12 2 -11 -1 -26 -6 -34 -6 -8 -11 -55 -12 -103 -2 -88 8 -130 37 -155 13
-12 12 -13 -7 -9 -22 5 -22 4 -7 -24 44 -85 178 -93 239 -13 38 50 55 108 55
188 0 95 -21 164 -62 203 -68 64 -121 70 -187 22z m136 -8 c10 -10 25 -20 35
-23 9 -4 19 -22 23 -40 4 -18 12 -39 19 -47 18 -23 13 -191 -8 -234 -9 -21
-21 -35 -26 -32 -6 3 -8 0 -5 -7 9 -26 -46 -53 -104 -52 -44 1 -58 6 -78 28
-17 19 -20 26 -9 26 8 0 21 -6 28 -13 26 -26 106 -4 133 36 38 59 49 192 21
252 -36 75 -111 107 -158 67 -12 -9 -15 -9 -15 3 0 8 5 11 10 8 5 -3 8 0 5 8
-11 33 97 50 129 20z m-38 -56 c58 -30 81 -174 42 -262 -21 -46 -45 -63 -88
-63 -65 0 -103 61 -103 164 0 78 17 124 55 154 32 26 55 27 94 7z"/>
<path d="M2293 5261 c-50 -23 -73 -62 -73 -125 0 -64 40 -102 148 -140 109
-38 139 -79 91 -127 -18 -18 -30 -21 -80 -17 -69 5 -114 37 -103 72 6 17 4 19
-7 9 -11 -9 -20 -8 -39 2 -37 21 -42 18 -38 -20 2 -24 -3 -39 -12 -45 -13 -8
-13 -10 1 -10 9 0 29 -12 45 -26 73 -64 159 -80 239 -45 69 30 90 62 90 133 0
46 -4 61 -25 83 -29 31 -74 55 -147 79 -73 24 -98 46 -90 78 13 52 128 64 146
16 5 -14 10 -18 15 -10 4 7 23 12 42 12 39 0 42 8 13 39 -16 17 -18 26 -10 34
18 18 13 29 -9 17 -14 -8 -31 -8 -58 0 -54 15 -91 12 -139 -9z m159 -20 c36
-13 42 -28 16 -34 -13 -4 -29 0 -39 9 -9 8 -35 17 -56 19 -33 3 -45 -2 -72
-27 -18 -17 -30 -36 -27 -44 3 -8 1 -14 -5 -14 -21 0 31 -51 75 -75 25 -13 46
-22 46 -18 0 3 6 1 13 -5 6 -5 27 -13 45 -17 18 -3 30 -11 26 -16 -3 -5 1 -9
9 -9 41 0 69 -119 38 -158 -43 -51 -123 -72 -191 -50 -19 7 -39 11 -43 10 -5
-1 -6 2 -2 8 3 5 -1 10 -10 10 -8 0 -18 7 -21 15 -4 8 -12 15 -19 15 -7 0 -11
10 -10 23 3 32 3 32 23 10 24 -28 64 -52 102 -63 37 -10 120 5 120 22 0 6 9 8
20 5 13 -3 18 -1 13 6 -4 6 -6 28 -4 48 2 32 -2 41 -32 63 -19 14 -39 26 -46
26 -18 0 -115 43 -119 52 -2 4 -10 8 -17 8 -17 0 -47 61 -47 94 0 33 40 89 59
82 8 -3 11 -2 8 3 -12 21 94 22 147 2z"/>
<path d="M2689 5257 c-31 -16 -54 -39 -76 -77 -31 -51 -33 -60 -33 -150 0 -84
3 -103 26 -149 46 -91 157 -135 248 -97 21 9 48 16 60 16 19 1 19 2 4 10 -15
9 -16 13 -2 46 8 20 14 38 12 40 -2 2 -22 -1 -43 -7 -29 -8 -40 -8 -43 0 -8
23 -22 10 -16 -14 7 -27 3 -29 -51 -25 -60 3 -93 41 -105 118 l-7 42 160 0
160 0 -7 56 c-3 30 -13 72 -22 92 -45 108 -163 152 -265 99z m174 -20 c27 -14
82 -85 73 -94 -3 -3 -1 -13 3 -22 5 -9 11 -31 14 -48 6 -38 19 -35 -179 -37
-62 -1 -106 -6 -115 -13 -16 -13 -18 -51 -4 -73 5 -9 4 -11 -3 -6 -18 11 -14
-10 3 -24 9 -7 13 -20 10 -29 -3 -8 -3 -12 1 -9 4 4 15 -4 26 -17 10 -14 37
-30 59 -37 36 -10 45 -9 77 8 20 10 40 23 44 29 5 6 8 5 8 -3 0 -7 5 -10 11
-6 6 3 4 -5 -5 -18 -22 -33 -66 -54 -77 -36 -7 10 -9 10 -9 1 0 -7 -9 -13 -20
-13 -11 0 -20 5 -20 11 0 5 -5 7 -11 4 -13 -8 -76 21 -103 48 -12 11 -14 17
-6 13 11 -6 11 -4 -1 6 -17 14 -30 46 -36 88 -7 53 -4 132 6 144 6 7 8 15 5
18 -9 10 54 104 78 116 51 25 122 24 171 -1z"/>
<path d="M2718 5223 c-10 -2 -18 -11 -18 -19 0 -8 -4 -12 -10 -9 -5 3 -10 0
-10 -9 0 -8 -4 -16 -9 -18 -5 -1 -11 -17 -14 -35 -3 -17 -7 -35 -10 -40 -3 -5
1 -17 9 -27 12 -17 25 -19 121 -17 128 3 147 10 138 53 -4 17 -8 38 -9 46 -2
9 -8 18 -14 20 -7 2 -12 10 -12 18 0 9 -4 12 -10 9 -5 -3 -10 -2 -10 3 0 24
-88 39 -142 25z m130 -38 c16 -14 33 -37 36 -52 4 -16 9 -36 12 -45 5 -16 -5
-18 -114 -18 l-120 0 7 33 c5 18 13 42 20 54 30 57 108 71 159 28z"/>
<path d="M3345 5267 c-44 -21 -75 -59 -82 -100 -13 -84 18 -120 150 -171 52
-20 98 -44 101 -52 29 -77 -62 -122 -154 -76 -28 13 -35 23 -35 45 1 27 -9 35
-20 17 -4 -7 -14 -5 -28 5 -37 26 -50 20 -43 -19 5 -27 3 -37 -11 -45 -17 -10
-16 -10 3 -11 11 0 29 -10 40 -21 29 -33 114 -69 163 -69 58 0 128 34 152 74
23 38 25 106 4 146 -16 32 -58 57 -152 91 -32 12 -66 28 -75 37 -40 35 -6 92
55 92 36 0 67 -16 67 -35 0 -8 5 -15 10 -15 6 0 10 5 10 10 0 6 16 10 35 10
38 0 42 5 20 34 -8 11 -13 28 -9 38 4 14 -1 17 -23 17 -15 -1 -55 2 -88 5 -42
5 -69 2 -90 -7z m129 -18 c41 -11 72 -34 58 -43 -10 -6 -29 -3 -65 12 -50 21
-101 15 -131 -15 -27 -27 -28 -42 -4 -90 11 -23 87 -58 120 -56 10 1 16 -2 13
-8 -4 -5 3 -9 14 -9 11 0 26 -7 35 -15 8 -8 19 -15 25 -15 19 0 42 -60 39
-101 -2 -48 -47 -105 -74 -95 -8 3 -12 2 -9 -4 3 -6 3 -11 -2 -11 -76 -12
-151 4 -199 42 -20 16 -34 29 -30 29 4 0 2 8 -3 18 -15 28 24 26 43 -3 15 -22
32 -32 109 -64 34 -14 58 -15 37 -1 -12 8 -9 10 11 10 44 0 79 35 79 79 0 47
-26 73 -95 96 -27 10 -58 24 -67 33 -14 12 -18 12 -18 2 0 -9 -5 -7 -15 6 -8
10 -15 15 -15 10 -1 -26 -38 45 -42 81 -4 33 -1 47 17 67 12 14 25 23 29 19 3
-3 6 1 6 11 0 9 3 15 8 13 4 -3 16 -1 27 4 28 11 54 11 99 -2z"/>
<path d="M1770 4950 c0 -293 -1 -320 -17 -329 -16 -9 -15 -10 7 -11 19 0 29
-8 37 -30 6 -16 16 -30 21 -30 5 0 15 14 22 30 8 20 20 30 34 30 19 1 19 2 4
11 -15 8 -18 26 -19 107 0 53 -4 106 -9 117 -5 13 -9 -27 -9 -108 -1 -105 -4
-129 -16 -134 -9 -3 -18 -3 -21 -1 -8 9 -9 628 -1 628 5 0 5 5 2 10 -3 6 0 10
8 10 8 0 14 -10 14 -22 1 -13 2 -34 3 -48 l2 -25 7 25 c4 14 11 40 14 58 l7
32 -45 0 -45 0 0 -320z"/>
<path d="M1620 5029 c0 -200 -2 -223 -17 -235 -17 -12 -17 -13 3 -14 14 0 26
-10 34 -30 7 -16 17 -30 22 -30 5 0 15 14 21 30 7 19 18 30 31 30 16 0 17 3 8
12 -9 9 -12 75 -12 235 l0 223 -45 0 -45 0 0 -221z m63 -15 c-1 -119 -5 -224
-8 -234 -6 -18 -7 -18 -23 -2 -15 15 -17 40 -14 227 3 207 6 224 37 225 6 0 9
-77 8 -216z"/>
<path d="M3596 5152 c-3 -4 4 -9 15 -9 23 -2 25 3 4 10 -8 4 -16 3 -19 -1z"/>
<path d="M3161 5095 c0 -27 25 -144 33 -152 9 -9 -5 84 -20 131 -7 23 -13 32
-13 21z"/>
<path d="M3190 4899 c0 -5 5 -7 10 -4 6 3 10 8 10 11 0 2 -4 4 -10 4 -5 0 -10
-5 -10 -11z"/>
<path d="M376 4792 c-6 -10 2 -63 10 -71 3 -3 4 14 3 37 -3 44 -4 48 -13 34z"/>
<path d="M4727 4777 c-16 -12 -47 -37 -69 -55 -23 -18 -54 -40 -70 -48 -15 -8
-28 -18 -28 -22 0 -4 -17 -16 -37 -27 -40 -21 -44 -23 -82 -55 -13 -11 -28
-17 -34 -13 -6 3 -7 1 -3 -5 4 -6 -6 -19 -21 -29 -15 -10 -32 -21 -38 -25 -5
-4 -41 -30 -78 -58 -38 -27 -80 -56 -95 -64 -15 -8 -39 -25 -53 -37 -22 -20
-62 -50 -157 -116 -9 -6 -14 -14 -11 -18 4 -3 13 0 20 7 8 7 48 35 89 63 41
27 77 52 80 55 3 4 102 75 220 160 118 84 217 156 220 159 3 4 24 19 48 34 41
27 54 36 117 91 37 31 21 34 -18 3z"/>
<path d="M3210 4777 c0 -30 40 -209 50 -225 10 -15 10 -14 6 3 -2 11 -7 34
-10 50 -4 17 -9 41 -12 55 -2 14 -7 47 -11 73 -5 44 -23 77 -23 44z"/>
<path d="M4771 4755 c-17 -20 -39 -48 -48 -63 -10 -15 -49 -70 -88 -122 -192
-262 -208 -287 -196 -307 9 -15 11 -15 9 -2 -3 14 86 146 127 190 8 9 15 19
15 22 0 4 35 55 78 113 42 58 89 124 103 145 14 22 28 37 30 34 3 -3 6 2 6 10
0 20 0 20 -36 -20z"/>
<path d="M1270 4756 c0 -5 179 -137 271 -202 31 -21 110 -77 174 -124 335
-242 375 -266 375 -227 0 8 -3 8 -9 -2 -6 -9 -11 -10 -15 -2 -4 5 -44 35 -89
66 -45 30 -97 67 -114 83 -17 15 -36 28 -43 30 -7 1 -18 9 -26 16 -7 8 -29 24
-49 36 -36 22 -46 34 -22 24 8 -3 20 3 28 13 12 16 12 17 -1 7 -19 -13 -62
-16 -54 -3 3 5 2 8 -3 7 -13 -4 -93 59 -85 67 4 5 2 5 -5 2 -6 -4 -19 0 -27 9
-9 8 -16 13 -16 10 0 -10 -45 39 -45 49 0 6 -11 9 -23 8 -12 -2 -22 2 -22 7 0
5 -17 19 -37 30 -21 11 -63 38 -93 60 -51 37 -70 47 -70 36z"/>
<path d="M405 4740 c3 -5 8 -10 11 -10 2 0 4 5 4 10 0 6 -5 10 -11 10 -5 0 -7
-4 -4 -10z"/>
<path d="M805 4730 c-13 -6 -15 -9 -5 -9 8 0 22 4 30 9 18 12 2 12 -25 0z"/>
<path d="M1188 4733 c7 -3 16 -2 19 1 4 3 -2 6 -13 5 -11 0 -14 -3 -6 -6z"/>
<path d="M1242 4707 c13 -21 31 -52 41 -69 9 -16 15 -33 12 -37 -6 -10 29 -43
38 -35 3 3 11 -5 18 -18 7 -12 19 -28 27 -34 9 -7 12 -16 7 -24 -5 -8 -4 -11
2 -7 6 4 21 -9 34 -28 13 -19 28 -35 32 -35 5 0 5 -4 2 -10 -8 -13 14 -52 25
-45 10 6 32 -29 25 -39 -3 -3 -2 -4 2 -1 6 5 43 -48 43 -61 0 -4 -8 0 -17 7
-16 13 -17 12 -5 -3 8 -10 17 -16 22 -15 15 4 59 -53 54 -71 -5 -14 -4 -14 4
-2 9 12 13 10 21 -11 5 -14 16 -32 23 -40 8 -8 38 -48 68 -89 64 -91 59 -85
66 -77 3 3 1 12 -5 19 -6 7 -24 31 -39 54 -89 133 -166 233 -175 227 -6 -3 -7
-1 -3 5 3 6 -9 32 -29 59 -19 26 -70 98 -114 158 -44 61 -90 125 -103 144 -13
18 -40 52 -61 75 l-38 41 23 -38z m79 -124 c13 -16 12 -17 -3 -4 -10 7 -18 15
-18 17 0 8 8 3 21 -13z"/>
<path d="M1948 4733 c6 -2 18 -2 25 0 6 3 1 5 -13 5 -14 0 -19 -2 -12 -5z"/>
<path d="M2783 4687 c-16 -47 -26 -127 -15 -127 5 0 9 6 10 13 0 6 5 41 12 76
12 71 9 87 -7 38z"/>
<path d="M1837 4513 c-4 -3 -7 -11 -7 -17 0 -6 5 -5 12 2 6 6 9 14 7 17 -3 3
-9 2 -12 -2z"/>
<path d="M2865 4434 c-382 -54 -637 -176 -880 -419 -280 -279 -420 -616 -420
-1010 0 -400 137 -735 415 -1015 120 -121 223 -197 371 -273 208 -105 399
-151 644 -151 401 -2 738 137 1020 419 211 211 344 463 402 760 24 125 23 385
-1 515 -57 295 -188 542 -401 755 -269 269 -598 411 -975 420 -80 2 -158 1
-175 -1z m350 -35 c33 -6 69 -11 80 -13 11 -1 36 -8 55 -14 19 -7 47 -13 62
-14 15 -1 24 -6 22 -10 -3 -4 6 -8 19 -8 34 0 203 -76 186 -84 -8 -3 -6 -5 6
-4 27 3 105 -43 105 -62 0 -13 1 -13 10 0 6 10 10 11 10 3 0 -7 6 -13 14 -13
8 0 16 -3 18 -8 2 -4 26 -24 53 -44 55 -39 93 -77 95 -93 1 -5 8 -9 17 -7 8 2
12 -1 8 -7 -3 -6 0 -9 8 -5 8 3 25 -10 42 -33 16 -21 37 -45 47 -54 10 -9 15
-19 11 -23 -3 -3 -1 -6 6 -6 7 0 9 -4 6 -10 -3 -6 1 -7 10 -4 9 4 15 3 13 -2
-1 -5 10 -27 25 -49 15 -22 27 -35 27 -30 0 5 6 0 14 -11 10 -13 11 -23 4 -31
-8 -10 -6 -13 4 -13 17 0 58 -69 58 -98 0 -12 4 -24 10 -27 6 -3 7 1 4 12 -5
17 -5 17 6 0 7 -10 9 -21 6 -24 -3 -3 2 -12 10 -20 8 -8 20 -35 26 -58 7 -24
16 -41 21 -38 5 3 6 -3 3 -15 -4 -11 -2 -23 4 -27 6 -4 9 -13 6 -21 -3 -8 -1
-14 4 -14 6 0 10 -11 10 -24 0 -13 6 -39 14 -57 22 -52 38 -181 41 -319 3
-175 -29 -391 -56 -374 -5 3 -5 -5 0 -18 10 -26 -13 -83 -29 -73 -6 3 -7 -1
-4 -9 3 -9 10 -14 15 -11 12 8 -32 -89 -103 -227 -33 -65 -64 -116 -68 -113
-8 5 -24 -24 -21 -38 1 -5 -3 -6 -8 -3 -9 6 -26 -22 -22 -38 1 -5 -5 -6 -14
-2 -9 3 -14 2 -11 -3 9 -15 -50 -75 -64 -66 -8 5 -11 4 -7 -3 9 -14 -3 -43
-14 -36 -5 3 -9 -1 -9 -8 0 -7 -25 -32 -55 -55 -30 -24 -55 -48 -55 -54 0 -7
-10 -4 -22 7 -14 11 -18 13 -11 3 11 -13 8 -19 -17 -37 -16 -12 -35 -22 -42
-22 -10 0 -10 -2 0 -9 11 -6 10 -10 -5 -16 -10 -5 -22 -7 -27 -6 -5 1 -12 -2
-15 -6 -14 -20 -73 -54 -152 -88 -46 -20 -92 -40 -102 -46 -10 -5 -22 -7 -27
-4 -6 4 -10 2 -10 -4 0 -6 -7 -8 -15 -5 -8 4 -21 2 -28 -4 -20 -16 -120 -41
-237 -59 -67 -11 -326 -4 -415 11 -134 22 -184 34 -208 51 -12 8 -34 15 -49
15 -16 0 -28 5 -28 12 0 6 -3 9 -6 5 -10 -10 -210 92 -225 115 -3 5 -13 10
-21 12 -8 1 -23 10 -33 20 -10 9 -29 24 -42 33 -20 13 -21 18 -11 32 11 14 11
14 -4 3 -13 -11 -20 -11 -37 0 -12 7 -24 21 -27 31 -3 9 -9 15 -14 12 -5 -3
-23 12 -40 32 -18 21 -29 31 -26 23 4 -8 -2 -4 -12 10 -11 14 -37 42 -56 64
-20 21 -36 43 -36 48 0 5 -6 6 -12 2 -7 -4 -10 -4 -6 1 8 8 -25 60 -52 83 -13
11 -13 12 0 6 9 -4 7 2 -6 17 -39 46 -75 110 -68 122 4 7 4 9 -1 5 -8 -7 -65
103 -65 125 0 7 -7 25 -15 41 -8 16 -18 47 -21 70 -4 22 -12 52 -19 66 -7 14
-16 52 -20 85 -4 33 -10 76 -13 95 -21 147 15 545 48 525 3 -2 4 9 2 26 -2 16
0 35 5 42 6 6 13 25 17 40 4 15 18 53 33 85 14 31 25 63 24 70 -1 6 2 12 7 12
5 0 16 14 23 32 7 17 29 52 48 77 19 25 26 39 16 31 -17 -14 -17 -14 -5 7 8
12 18 19 22 17 4 -3 8 -1 8 5 0 5 11 23 25 39 13 16 21 33 17 37 -4 5 2 5 13
1 11 -4 16 -4 12 0 -9 9 33 55 43 49 4 -3 14 3 21 13 13 15 12 16 -3 3 -10 -7
-18 -9 -18 -3 0 14 26 33 34 25 4 -4 4 -1 1 8 -4 10 8 25 32 44 21 17 52 44
70 61 29 29 33 30 49 15 16 -15 17 -15 6 0 -10 14 -7 20 22 40 19 13 32 28 29
33 -4 5 3 7 16 3 17 -4 21 -2 17 9 -4 9 -2 12 5 8 6 -4 14 -2 18 3 7 10 105
73 114 73 3 0 40 16 82 35 42 20 81 32 87 29 7 -4 8 -2 4 5 -6 8 0 10 21 6 15
-3 21 -2 13 2 -12 5 51 23 130 37 8 2 32 7 53 11 121 24 327 26 462 4z"/>
<path d="M3846 4111 c-4 -5 -2 -12 3 -15 5 -4 12 -2 15 3 4 5 2 12 -3 15 -5 4
-12 2 -15 -3z"/>
<path d="M4006 3965 c-4 -11 -2 -14 6 -9 7 5 9 2 5 -9 -4 -11 -2 -14 9 -10 12
4 12 8 2 22 -7 9 -13 17 -14 19 -1 2 -4 -4 -8 -13z"/>
<path d="M4170 3780 c0 -5 5 -10 11 -10 5 0 7 5 4 10 -3 6 -8 10 -11 10 -2 0
-4 -4 -4 -10z"/>
<path d="M1621 2704 c0 -11 3 -14 6 -6 3 7 2 16 -1 19 -3 4 -6 -2 -5 -13z"/>
<path d="M3550 4406 c0 -2 7 -7 16 -10 8 -3 12 -2 9 4 -6 10 -25 14 -25 6z"/>
<path d="M2405 4390 c-3 -6 1 -7 9 -4 18 7 21 14 7 14 -6 0 -13 -4 -16 -10z"/>
<path d="M1476 4333 c-6 -14 -5 -15 5 -6 7 7 10 15 7 18 -3 3 -9 -2 -12 -12z"/>
<path d="M2240 4310 c-8 -5 -10 -10 -5 -10 6 0 17 5 25 10 8 5 11 10 5 10 -5
0 -17 -5 -25 -10z"/>
<path d="M4385 4224 c-16 -25 -34 -53 -40 -62 -5 -9 -14 -21 -18 -26 -40 -52
-135 -191 -132 -194 5 -5 35 24 35 33 0 3 26 41 58 83 33 42 66 91 75 107 9
17 27 42 41 57 25 26 34 48 19 48 -5 -1 -21 -21 -38 -46z"/>
<path d="M2109 4223 c-13 -17 -13 -17 6 -3 11 8 22 16 24 17 2 2 0 3 -6 3 -6
0 -17 -8 -24 -17z"/>
<path d="M1790 3940 c0 -5 5 -10 10 -10 6 0 10 5 10 10 0 6 -4 10 -10 10 -5 0
-10 -4 -10 -10z"/>
<path d="M1682 3745 c-17 -37 -14 -45 4 -12 9 16 14 31 11 33 -2 2 -9 -7 -15
-21z"/>
<path d="M4306 3747 c3 -10 9 -15 12 -12 3 3 0 11 -7 18 -10 9 -11 8 -5 -6z"/>
<path d="M1645 3679 c-4 -6 -5 -12 -2 -15 2 -3 7 2 10 11 7 17 1 20 -8 4z"/>
<path d="M1611 3613 c-1 -6 -4 -20 -7 -30 -5 -17 -5 -17 6 0 6 10 9 23 6 30
-3 9 -5 9 -5 0z"/>
<path d="M1340 3239 c-237 -42 -298 -51 -350 -53 -77 -4 -84 -5 -76 -13 7 -7
-55 -18 -204 -37 -19 -3 -55 -8 -80 -12 -25 -4 -48 -7 -52 -6 -4 1 -19 -3 -34
-8 -15 -6 -59 -13 -98 -16 -39 -3 -87 -9 -106 -15 -19 -5 -78 -16 -130 -24
-116 -18 -128 -21 -160 -34 l-25 -10 25 0 c23 -1 296 43 875 140 433 72 540
92 550 100 12 12 -11 10 -135 -12z m-367 -66 c-7 -2 -19 -2 -25 0 -7 3 -2 5
12 5 14 0 19 -2 13 -5z"/>
<path d="M4572 3251 c-7 -4 79 -22 190 -40 112 -18 237 -38 278 -46 41 -8 165
-28 275 -45 110 -17 236 -38 280 -45 136 -25 331 -55 354 -55 22 0 30 16 9 18
-57 5 -112 13 -118 17 -7 5 -105 17 -147 19 -11 1 -19 4 -16 9 2 4 -15 7 -39
7 -24 0 -70 5 -103 10 -33 6 -76 13 -95 16 -19 2 -46 7 -60 9 -46 9 -155 27
-175 28 -11 1 -25 5 -31 10 -7 4 -23 6 -35 6 -13 -1 -71 6 -129 16 -58 9 -114
18 -125 20 -82 13 -105 18 -142 26 -22 5 -65 12 -95 15 -29 3 -55 8 -58 10 -3
1 -11 -1 -18 -5z"/>
<path d="M32 2989 c10 -5 32 -12 50 -14 18 -3 69 -12 113 -21 44 -9 103 -18
130 -21 38 -4 45 -7 30 -14 -13 -5 -3 -6 25 -3 25 3 79 -2 120 -11 41 -9 95
-18 120 -20 77 -6 239 -37 260 -50 9 -6 11 -4 5 5 -6 10 -2 12 16 7 13 -4 49
-10 79 -13 30 -4 57 -10 60 -14 5 -7 238 -42 290 -44 14 0 27 -3 30 -7 8 -10
100 -17 100 -8 0 5 -3 9 -6 9 -3 0 -225 36 -492 80 -891 147 -961 158 -930
139z"/>
<path d="M5745 2970 c-93 -16 -208 -36 -255 -44 -73 -13 -529 -90 -615 -103
-16 -2 -82 -14 -145 -25 -63 -11 -132 -22 -152 -25 -21 -3 -38 -9 -38 -12 0
-8 66 -3 90 6 8 3 26 7 40 8 14 2 57 8 95 15 138 23 187 29 203 23 14 -4 14
-3 3 5 -10 7 4 12 52 17 37 4 76 5 87 2 11 -3 20 -2 20 3 0 8 40 18 105 26 22
3 75 11 117 19 43 8 86 12 95 9 15 -5 16 -4 3 5 -12 9 -6 10 25 8 22 -2 56 2
75 8 19 6 55 12 80 14 25 1 59 6 75 10 17 5 37 10 45 10 29 1 195 31 225 40
63 20 -58 9 -230 -19z"/>
<path d="M5580 2906 c0 -2 7 -7 16 -10 8 -3 12 -2 9 4 -6 10 -25 14 -25 6z"/>
<path d="M918 2823 c7 -3 16 -2 19 1 4 3 -2 6 -13 5 -11 0 -14 -3 -6 -6z"/>
<path d="M1521 2684 c0 -11 3 -14 6 -6 3 7 2 16 -1 19 -3 4 -6 -2 -5 -13z"/>
<path d="M1561 2514 c0 -11 3 -14 6 -6 3 7 2 16 -1 19 -3 4 -6 -2 -5 -13z"/>
<path d="M1603 2418 c1 -16 5 -28 9 -28 10 0 9 9 -2 35 -8 17 -8 16 -7 -7z"/>
<path d="M4386 2415 c-9 -26 -7 -32 5 -12 6 10 9 21 6 23 -2 3 -7 -2 -11 -11z"/>
<path d="M1631 2350 c14 -31 19 -36 19 -24 0 6 -7 19 -16 30 -14 18 -14 18 -3
-6z"/>
<path d="M4306 2255 c-9 -26 -7 -32 5 -12 6 10 9 21 6 23 -2 3 -7 -2 -11 -11z"/>
<path d="M1795 2078 c5 -14 -41 -83 -138 -208 -24 -30 -54 -73 -67 -95 -27
-45 -40 -56 -54 -48 -5 4 -6 1 -1 -6 4 -8 -5 -27 -22 -49 -17 -20 -37 -51 -45
-67 -9 -17 -25 -39 -37 -49 -12 -11 -21 -25 -21 -33 0 -7 -4 -13 -9 -13 -5 0
-20 -17 -32 -37 -13 -21 -28 -41 -33 -45 -6 -4 -7 -8 -2 -8 5 0 -3 -9 -17 -21
-15 -11 -26 -23 -24 -27 3 -12 -73 -113 -81 -108 -4 2 -8 -3 -9 -12 -1 -9 -4
-28 -8 -42 l-8 -25 22 27 c12 15 19 32 16 38 -4 6 -1 9 5 8 10 -3 52 52 214
282 41 58 110 153 153 212 128 175 203 285 203 296 0 6 5 12 11 14 7 2 5 9 -5
17 -14 12 -16 12 -11 -1z"/>
<path d="M4190 2066 c0 -9 5 -16 10 -16 6 0 10 4 10 9 0 6 -4 13 -10 16 -5 3
-10 -1 -10 -9z"/>
<path d="M4210 2035 c0 -3 28 -45 63 -93 34 -48 74 -105 90 -127 48 -71 64
-88 70 -78 3 5 -5 21 -19 36 -14 15 -22 32 -18 39 4 6 3 8 -4 5 -10 -7 -69 80
-64 96 1 4 -4 6 -10 5 -8 -2 -12 5 -10 16 2 10 -1 15 -7 12 -10 -7 -37 32 -33
47 1 5 -1 6 -6 3 -5 -3 -15 6 -22 19 -12 22 -30 34 -30 20z"/>
<path d="M4024 1938 l-19 -23 23 19 c12 11 22 21 22 23 0 8 -8 2 -26 -19z"/>
<path d="M1980 1754 c-41 -30 -102 -73 -135 -96 -33 -23 -89 -63 -125 -89 -36
-27 -130 -95 -210 -152 -80 -58 -144 -110 -143 -115 2 -6 -3 -9 -10 -6 -7 2
-44 -19 -82 -48 -42 -31 -64 -53 -55 -56 7 -3 19 3 26 13 11 15 16 16 28 6 13
-11 15 -10 11 7 -2 13 5 24 23 33 15 7 31 12 35 10 5 -1 6 3 2 9 -3 5 -1 10 6
10 7 0 23 10 36 21 18 18 25 20 37 10 13 -11 14 -9 10 14 -3 15 -1 24 4 21 4
-3 21 7 38 21 44 38 106 79 132 87 13 4 19 12 16 18 -5 8 -1 9 10 5 9 -4 15
-3 12 2 -7 12 39 53 49 44 4 -5 5 -3 2 3 -10 17 34 26 52 11 14 -10 14 -10 4
3 -9 12 -6 20 16 41 15 14 32 24 38 22 6 -2 15 1 19 8 5 8 3 9 -6 4 -9 -5 -11
-4 -6 3 4 7 13 12 20 12 7 0 22 9 34 21 13 11 28 17 35 13 6 -4 9 -4 5 1 -11
12 11 35 28 28 9 -3 14 0 12 7 -2 7 3 15 11 18 9 3 11 0 6 -9 -5 -8 -4 -11 1
-6 5 5 9 14 9 20 1 7 7 11 14 9 7 -1 10 1 7 6 -2 4 13 19 35 32 35 23 50 41
32 39 -5 0 -42 -25 -83 -55z"/>
<path d="M3905 1800 c-3 -6 1 -7 9 -4 18 7 21 14 7 14 -6 0 -13 -4 -16 -10z"/>
<path d="M4002 1752 c60 -45 89 -66 144 -103 13 -9 22 -19 19 -22 -3 -4 -2 -5
1 -3 3 3 11 1 18 -5 6 -5 23 -19 39 -30 15 -11 24 -25 21 -31 -4 -6 -2 -8 4
-5 14 9 43 -3 36 -14 -3 -5 1 -7 8 -4 7 3 31 -11 53 -30 22 -19 43 -35 48 -35
4 0 5 -5 2 -10 -4 -6 -3 -10 2 -9 4 1 13 1 19 0 15 -1 70 -53 67 -63 -2 -4 3
-5 11 -2 7 3 29 -9 47 -25 18 -17 36 -31 40 -31 4 0 10 -7 13 -16 4 -11 2 -15
-7 -11 -8 3 -14 0 -14 -7 0 -6 8 -12 18 -12 11 0 16 7 14 18 -3 11 1 15 10 11
8 -2 13 -10 12 -16 -1 -6 5 -12 13 -12 8 0 14 -6 13 -13 -2 -7 4 -9 14 -5 12
5 15 2 10 -9 -4 -11 -1 -14 12 -11 17 4 37 -12 41 -32 1 -5 7 -9 12 -7 6 1 16
-2 24 -9 17 -14 44 -5 44 14 0 8 -9 26 -21 41 -11 14 -17 26 -12 26 4 0 2 4
-5 8 -23 15 -61 75 -55 86 3 6 3 8 -1 4 -12 -10 -45 23 -39 38 3 8 1 14 -4 14
-5 0 -19 17 -31 38 -12 20 -33 48 -47 61 -14 13 -32 39 -40 58 -8 18 -19 33
-25 33 -6 0 -8 5 -4 12 5 7 3 8 -6 3 -10 -6 -12 -4 -7 8 4 10 2 16 -6 14 -7
-1 -10 5 -9 13 2 8 0 12 -4 8 -4 -4 -15 7 -24 25 -13 24 -15 36 -7 47 6 8 0 5
-13 -7 l-24 -23 21 -22 c11 -13 34 -44 52 -71 19 -27 37 -45 43 -41 7 4 8 2 4
-4 -7 -11 93 -158 211 -314 45 -59 55 -82 26 -56 -10 9 -43 33 -74 54 -30 22
-142 101 -247 177 -111 80 -197 135 -204 131 -6 -4 -8 -3 -5 3 7 11 -11 25
-198 158 -104 74 -147 88 -53 17z"/>
<path d="M2156 1747 c3 -10 9 -15 12 -12 3 3 0 11 -7 18 -10 9 -11 8 -5 -6z"/>
<path d="M3825 1740 c-16 -17 -16 -20 -3 -15 9 4 19 13 22 21 7 19 2 18 -19
-6z"/>
<path d="M3780 1709 c0 -5 5 -7 10 -4 6 3 10 8 10 11 0 2 -4 4 -10 4 -5 0 -10
-5 -10 -11z"/>
<path d="M2231 1697 c2 -1 12 -9 22 -16 15 -12 17 -12 11 3 -3 9 -13 16 -22
16 -8 0 -13 -1 -11 -3z"/>
<path d="M3740 1690 c-8 -5 -10 -10 -5 -10 6 0 17 5 25 10 8 5 11 10 5 10 -5
0 -17 -5 -25 -10z"/>
<path d="M1464 1660 c0 -13 4 -16 10 -10 7 7 7 13 0 20 -6 6 -10 3 -10 -10z"/>
<path d="M2330 1646 c0 -3 9 -10 20 -16 11 -6 20 -8 20 -6 0 3 -9 10 -20 16
-11 6 -20 8 -20 6z"/>
<path d="M3630 1630 c0 -5 4 -10 9 -10 6 0 13 5 16 10 3 6 -1 10 -9 10 -9 0
-16 -4 -16 -10z"/>
<path d="M2407 1609 c7 -7 15 -10 18 -7 3 3 -2 9 -12 12 -14 6 -15 5 -6 -5z"/>
<path d="M3565 1605 c-40 -19 -16 -19 26 0 19 8 27 14 19 14 -8 0 -28 -7 -45
-14z"/>
<path d="M4490 1540 c6 -11 13 -20 16 -20 2 0 0 9 -6 20 -6 11 -13 20 -16 20
-2 0 0 -9 6 -20z"/>
<path d="M2767 1450 c3 -30 7 -66 8 -80 1 -22 9 -74 21 -135 2 -11 9 -51 14
-90 6 -38 17 -108 25 -155 8 -47 24 -143 35 -215 11 -71 28 -170 36 -220 9
-49 18 -108 20 -130 3 -22 6 -45 9 -52 11 -32 36 -208 32 -224 -3 -12 -1 -17
6 -12 6 4 8 0 4 -10 -7 -19 8 -76 27 -102 15 -20 15 -20 11 0 -5 20 -44 261
-70 425 -14 90 -55 337 -80 480 -8 47 -24 141 -35 210 -29 170 -48 277 -60
325 -8 36 -9 34 -3 -15z"/>
<path d="M3253 1455 c-16 -71 -216 -1284 -228 -1380 -5 -49 -5 -49 9 -20 8 17
22 84 32 150 10 66 19 125 20 130 2 6 10 57 19 115 9 58 21 128 25 155 12 68
35 217 55 350 9 61 21 129 26 153 8 37 17 101 24 164 0 10 4 21 8 24 4 4 7 25
7 46 0 22 5 59 11 83 6 23 9 51 7 61 -2 11 -9 -3 -15 -31z"/>
<path d="M1297 1429 c7 -7 15 -10 18 -7 3 3 -2 9 -12 12 -14 6 -15 5 -6 -5z"/>
<path d="M4695 1432 c3 -3 -1 -12 -7 -21 -8 -10 -4 -9 10 3 26 23 26 23 7 23
-8 0 -13 -3 -10 -5z"/>
<path d="M1219 1333 c-13 -16 -12 -17 4 -4 9 7 17 15 17 17 0 8 -8 3 -21 -13z"/>
<path d="M1235 1313 l-17 -28 23 22 c12 12 20 25 17 28 -3 3 -13 -7 -23 -22z"/>
<path d="M85 970 c-82 -6 -77 -6 63 -8 l152 -2 0 -330 0 -330 330 0 330 0 0
-150 c0 -82 3 -150 8 -150 10 0 9 292 -1 308 -7 10 -77 13 -324 12 -173 -1
-319 2 -323 7 -4 4 -4 35 0 68 11 81 0 557 -13 573 -10 13 -60 13 -222 2z"/>
</g>
</svg>
