<?xml version="1.0" encoding="UTF-8"?>
<svg version="1.1" xmlns="http://www.w3.org/2000/svg" width="1000" height="1000">
<path d="M0 0 C1.98 0 3.96 0 6 0 C8.09299287 7.62212496 9.31321073 15.37818522 10.59106445 23.16821289 C10.84584443 24.706264 11.10091337 26.24426726 11.35624695 27.78222656 C12.05002092 31.96619061 12.73971881 36.15081751 13.4286921 40.33557439 C14.16497379 44.80332304 14.90500001 49.27045153 15.64457703 53.73765564 C17.05895188 62.28433282 18.46991963 70.83156892 19.87970656 79.37900394 C21.43157853 88.78682395 22.98737034 98.19399409 24.54347062 107.60111547 C29.48597617 137.48292395 34.42785153 167.36481869 39.31539357 197.255674 C40.22550893 202.81995705 41.13714714 208.38399089 42.0486874 213.94804066 C42.91097223 219.21312911 43.77024716 224.47869765 44.62726068 229.74464655 C45.15153196 232.96203085 45.67844122 236.17897896 46.20608163 239.39581227 C46.44976791 240.88509307 46.69230507 242.3745624 46.93362784 243.86422801 C47.26150544 245.88742272 47.59372301 247.90991271 47.92619324 249.93235779 C48.20282696 251.62845515 48.20282696 251.62845515 48.48504925 253.3588171 C48.87074913 255.96465254 48.87074913 255.96465254 50 258 C52.99684486 258.7645639 55.97483487 259.43012853 59 260.0625 C91.32702296 267.36475467 122.9895415 281.95627655 148.87109375 302.76953125 C150.86413134 304.20656224 150.86413134 304.20656224 152.86328125 303.77099609 C155.43003927 302.84482815 157.16462977 301.57408688 159.31640625 299.89453125 C160.15316895 299.24790527 160.98993164 298.6012793 161.85205078 297.93505859 C162.74649902 297.23461426 163.64094727 296.53416992 164.5625 295.8125 C166.46648164 294.34119663 168.37144934 292.87116851 170.27734375 291.40234375 C171.23753418 290.66097168 172.19772461 289.91959961 173.18701172 289.15576172 C177.29388137 286.00842107 181.45255834 282.93461544 185.625 279.875 C186.40125732 279.30483154 187.17751465 278.73466309 187.97729492 278.1472168 C191.09445505 275.85944334 194.21428013 273.5753179 197.33398438 271.29101562 C206.47750355 264.59187919 215.56406022 257.83065685 224.5625 250.9375 C231.6891163 245.47823315 238.89190581 240.15286148 246.19384766 234.93115234 C252.92622819 230.09730609 259.50687598 225.07490299 266.0847168 220.03369141 C273.58873845 214.29038604 281.17825504 208.67058214 288.80078125 203.0859375 C292.8908702 200.08863495 296.95008317 197.05129782 301 194 C302.9375 194.8125 302.9375 194.8125 305 196 C305.33 196.99 305.66 197.98 306 199 C304.8046875 200.8125 304.8046875 200.8125 302.875 203 C298.8601628 207.80383999 295.31251038 212.8106722 291.8125 218 C285.91578762 226.7114029 279.82213794 235.25902807 273.62939453 243.76171875 C270.89118627 247.52316516 268.16335074 251.2920922 265.4375 255.0625 C264.62925781 256.18023804 264.62925781 256.18023804 263.8046875 257.32055664 C259.66617247 263.05402047 255.58277012 268.82484653 251.51708984 274.61010742 C247.91154885 279.73243368 244.24589608 284.80847134 240.5625 289.875 C236.07451526 296.05159319 231.71873887 302.30355319 227.4375 308.625 C222.95451104 315.23871777 218.31195819 321.68845236 213.4753418 328.04736328 C207.78038447 335.55387751 202.3924065 343.27470842 197 351 C197.38929688 351.6084375 197.77859375 352.216875 198.1796875 352.84375 C199.39935164 354.7547445 200.61354279 356.66923608 201.82421875 358.5859375 C203.27786136 360.8817224 204.76271529 363.15287881 206.26953125 365.4140625 C221.83011416 389.08682789 240 423.89187525 240 453 C240.59628141 453.02952003 241.19256283 453.05904007 241.80691338 453.08945465 C253.0671719 453.83235239 264.14630532 455.84997798 275.27001953 457.67773438 C277.62313083 458.06088141 279.97630748 458.44362727 282.32954407 458.82600403 C288.69104275 459.8609319 295.05157543 460.90168585 301.41191721 461.94369698 C307.39584511 462.92370175 313.38054369 463.89898308 319.3651465 464.87485594 C331.21314764 466.80702587 343.06038765 468.74382349 354.90722656 470.68310547 C366.40301386 472.56492045 377.89941932 474.44290178 389.39648438 476.31689453 C401.93174197 478.36011542 414.46666166 480.40538666 427.00099075 482.45429659 C428.33599642 482.67251951 429.67100222 482.89074166 431.00600815 483.10896301 C431.66280923 483.21632761 432.3196103 483.32369221 432.99631444 483.43431029 C437.62852685 484.19138923 442.2609701 484.94704519 446.89349747 485.70219421 C453.11728137 486.71695554 459.34052578 487.73496234 465.56336021 488.7555294 C467.85217452 489.13036812 470.14117356 489.5040807 472.43036461 489.87661171 C475.54303996 490.38334336 478.65503233 490.89407479 481.76687622 491.40588379 C482.68280174 491.55403581 483.59872727 491.70218783 484.54240811 491.85482931 C485.37152136 491.99205609 486.20063462 492.12928287 487.05487251 492.27066803 C487.77363347 492.38821898 488.49239443 492.50576993 489.23293602 492.62688303 C491 493 491 493 493 494 C493 495.98 493 497.96 493 500 C469.18794726 504.00266375 445.37541701 508.00248135 421.5625 512 C420.68260391 512.14771316 419.80270782 512.29542631 418.8961482 512.44761562 C372.54404764 520.22883908 326.1892964 527.99208127 279.8125 535.625 C278.78527454 535.7940686 277.75804909 535.96313721 276.69969559 536.1373291 C264.80043684 538.09545564 252.90061753 540.05014827 241 542 C240.72987595 543.08706741 240.45975189 544.17413483 240.18144226 545.29414368 C239.82111148 546.7407825 239.46074264 548.18741184 239.1003418 549.6340332 C238.83434803 550.70512707 238.83434803 550.70512707 238.56298065 551.79785919 C231.15878891 581.49172548 219.75983618 611.29696724 201.38916016 636.04223633 C197.87392266 640.58437062 197.87392266 640.58437062 197 646 C198.5731185 648.93989974 200.581551 651.49835931 202.625 654.125 C203.83824605 655.7404563 205.04911384 657.35770099 206.2578125 658.9765625 C206.88204102 659.80704102 207.50626953 660.63751953 208.14941406 661.49316406 C211.04718061 665.41852909 213.77212969 669.45560126 216.5 673.5 C221.23270372 680.47559684 226.09444088 687.34110958 231.05249023 694.15795898 C236.9148816 702.22985179 242.61163743 710.41542863 248.31982422 718.59667969 C250.91005766 722.30174479 253.51615377 725.99552628 256.125 729.6875 C256.61234619 730.377229 257.09969238 731.06695801 257.60180664 731.77758789 C258.57850604 733.15958101 259.55531218 734.54149869 260.53222656 735.92333984 C263.02320986 739.44767516 265.51144903 742.97394701 268 746.5 C268.99998722 747.91667568 269.99998722 749.33334236 271 750.75 C273 753.58333333 275 756.41666667 277 759.25 C277.49564453 759.95205566 277.99128906 760.65411133 278.50195312 761.37744141 C279.49585223 762.78568111 280.48934587 764.19420707 281.48242188 765.60302734 C284.07241158 769.27615006 286.67051999 772.94314592 289.28125 776.6015625 C289.82007813 777.35888672 290.35890625 778.11621094 290.9140625 778.89648438 C291.93747575 780.33455644 292.96334124 781.77088799 293.9921875 783.20507812 C296.93477251 787.3466446 299.54896294 791.54882422 302 796 C300.75 797.5625 300.75 797.5625 299 799 C295.73538035 798.57721271 293.65433693 797.24332934 291.05078125 795.296875 C290.2942627 794.73564941 289.53774414 794.17442383 288.75830078 793.59619141 C287.54762939 792.68232666 287.54762939 792.68232666 286.3125 791.75 C285.46671387 791.11884277 284.62092773 790.48768555 283.74951172 789.83740234 C276.21275125 784.19926888 268.73556904 778.48292728 261.2734375 772.74658203 C249.65047221 763.81716905 237.98896803 754.95057485 226.16455078 746.28930664 C219.32199048 741.26569972 212.5765291 736.12015863 205.8359375 730.9609375 C199.34330316 726.00048826 192.78558876 721.13699111 186.19262695 716.31103516 C179.06393732 711.07939436 172.03516118 705.72033695 165.02734375 700.328125 C162.69461721 698.53873539 160.35100952 696.76526678 158 695 C157.40783691 694.54399414 156.81567383 694.08798828 156.20556641 693.61816406 C154.12982931 692.10015551 152.63264414 691.00870041 150.01171875 690.97265625 C147.04776543 692.48628678 144.45835175 694.43878652 141.8125 696.4375 C114.90325897 716.09636271 83.51387904 729.07493075 51 736 C48.78742456 742.90220692 47.66572301 749.99277099 46.42480469 757.12084961 C46.17144173 758.56000408 45.91775103 759.99910089 45.66376019 761.43814468 C44.97354452 765.35420461 44.28794638 769.27106048 43.60316539 773.18807387 C42.87458502 777.35097364 42.14176351 781.51312683 41.40943909 785.67536926 C40.16340289 792.76073434 38.92006491 799.84656845 37.67861938 806.93273926 C35.91558685 816.99609182 34.14809477 827.0586571 32.3795625 837.1210444 C26.9250835 868.1571893 21.48498883 899.19584839 16.06640625 930.23828125 C15.72458753 932.19575652 15.3827604 934.15323032 15.04092407 936.11070251 C13.70659846 943.75299804 12.37323261 951.39544807 11.04746342 959.03923321 C10.54016191 961.96220756 10.03118002 964.88488756 9.5218029 967.80750084 C9.19048388 969.71234553 8.86161112 971.61761523 8.53285217 973.52290344 C8.34194504 974.61717148 8.1510379 975.71143951 7.9543457 976.83886719 C7.71129448 978.24129669 7.71129448 978.24129669 7.46333313 979.67205811 C7 982 7 982 6 985 C4.02 985.33 2.04 985.66 0 986 C-4.39569134 960.46512165 -8.28112517 934.8542748 -12.17062974 909.2383635 C-12.89566734 904.46516914 -13.62209953 899.69218744 -14.34852999 894.91920489 C-16.05967897 883.67615916 -17.76873288 872.43279645 -19.47631836 861.18920898 C-21.23638126 849.60027729 -22.99964415 838.01183569 -24.76448995 826.42363149 C-26.28638311 816.43010492 -27.80654911 806.43631674 -29.32526416 796.4423067 C-30.22969753 790.49064461 -31.13473904 784.53907672 -32.04136086 778.58774757 C-32.88965457 773.01868028 -33.735787 767.44928892 -34.58021927 761.87963486 C-34.89066799 759.83441592 -35.2018818 757.78931295 -35.51390266 755.74433327 C-35.9382709 752.96221258 -36.35991217 750.17969221 -36.78083801 747.39704895 C-36.90582871 746.58191529 -37.0308194 745.76678162 -37.15959769 744.92694694 C-37.61211983 741.91992748 -38 739.04583448 -38 736 C-39.258125 735.938125 -40.51625 735.87625 -41.8125 735.8125 C-72.03587174 732.70939713 -103.40873849 717.82384888 -128.27490234 701.140625 C-131.4733548 699.02582598 -134.74044316 697.01884949 -138 695 C-143.10571419 698.39351025 -148.20968089 701.78963798 -153.3125 705.1875 C-154.11018799 705.7186441 -154.90787598 706.24978821 -155.72973633 706.79702759 C-167.9622125 714.94520378 -180.1564396 723.14831045 -192.33111572 731.38253784 C-209.05416477 742.6923091 -225.85608651 753.87314058 -242.72851562 764.95877075 C-254.36891238 772.60822221 -265.97955359 780.29580462 -277.5 788.125 C-278.07853729 788.51786194 -278.65707458 788.91072388 -279.25314331 789.31549072 C-286.21377565 794.03549454 -286.21377565 794.03549454 -293 799 C-294.98 797.515 -294.98 797.515 -297 796 C-296.67 794.68 -296.34 793.36 -296 792 C-295.34 792 -294.68 792 -294 792 C-293.72704102 791.42000244 -293.45408203 790.84000488 -293.17285156 790.24243164 C-292.01306151 788.02497293 -290.72740747 786.12670769 -289.234375 784.12109375 C-288.68152832 783.3748877 -288.12868164 782.62868164 -287.55908203 781.85986328 C-286.96208496 781.0604834 -286.36508789 780.26110352 -285.75 779.4375 C-284.47121176 777.71494946 -283.19256988 775.99229026 -281.9140625 774.26953125 C-281.26083008 773.39119629 -280.60759766 772.51286133 -279.93457031 771.60791016 C-278.12252262 769.16516742 -276.32046207 766.71552648 -274.5234375 764.26171875 C-267.67991479 754.92070355 -260.72088221 745.67814238 -253.68017578 736.48486328 C-250.03528312 731.71273904 -246.45310417 726.91255716 -243 722 C-238.89413864 716.15879809 -234.59101313 710.48070186 -230.25 704.8125 C-222.7086329 694.96432017 -215.33032644 685.00576254 -208 675 C-205.523002 671.62340225 -203.04322231 668.24886208 -200.5625 664.875 C-200.00739746 664.11751465 -199.45229492 663.3600293 -198.88037109 662.57958984 C-195.00997076 657.31486937 -191.03471016 652.13976781 -187 647 C-187.53584717 646.19695435 -187.53584717 646.19695435 -188.08251953 645.37768555 C-189.07655657 643.88550339 -190.06650346 642.39059593 -191.0546875 640.89453125 C-192.38561482 638.91417554 -193.74667675 636.95383202 -195.1328125 635.01171875 C-214.39690259 607.72194243 -228.93945687 574.31681469 -233 541 C-233.57322817 540.92716612 -234.14645634 540.85433224 -234.73705506 540.77929127 C-249.71247496 538.86927077 -264.65289967 536.77599607 -279.58496094 534.55419922 C-281.8395906 534.22024424 -284.09424531 533.88645833 -286.34892273 533.55282593 C-292.39124077 532.65817108 -298.43318135 531.76099244 -304.47502804 530.86316061 C-309.53341959 530.11170678 -314.59199638 529.36150399 -319.65057111 528.61128438 C-332.24840887 526.74291267 -344.84587813 524.87207202 -357.44317499 523.00005795 C-368.3774353 521.37525666 -379.31215679 519.75358281 -390.24709675 518.1333624 C-401.51324041 516.46404195 -412.77907787 514.79267192 -424.04460549 513.11919796 C-430.35487568 512.18183735 -436.66526064 511.24526743 -442.97594452 510.31069565 C-448.88948898 509.43484149 -454.80264062 508.55638274 -460.71549416 507.67587662 C-462.88783984 507.35283346 -465.06032436 507.03072244 -467.23295403 506.70959473 C-470.18910778 506.27250824 -473.14474922 505.83210982 -476.10028076 505.39083862 C-476.96688064 505.26350558 -477.83348053 505.13617254 -478.72634101 505.00498092 C-481.92540448 504.5244998 -484.9244426 504.0251858 -488 503 C-488 501.35 -488 499.7 -488 498 C-484.08628133 495.56938687 -479.74638842 495.14205115 -475.27941895 494.45767212 C-474.38920846 494.3158612 -473.49899798 494.17405028 -472.58181143 494.02794206 C-469.59261844 493.55344231 -466.60201428 493.08852359 -463.61132812 492.62353516 C-461.4689146 492.28547511 -459.3265929 491.94683265 -457.18435669 491.60765076 C-451.35326472 490.686166 -445.52089417 489.77301874 -439.68824959 488.86142015 C-433.56403284 487.9029179 -427.44096204 486.93714913 -421.31774902 485.97225952 C-411.00842746 484.34879646 -400.69833741 482.73028807 -390.38769531 481.11523438 C-377.23350016 479.05475746 -364.08057635 476.98629007 -350.92804718 474.91520119 C-339.55414144 473.1242318 -328.17968936 471.33674124 -316.80513573 469.54989195 C-313.18726953 468.98143643 -309.56946925 468.41256285 -305.95167542 467.843647 C-256.92231033 460.1363271 -256.92231033 460.1363271 -234 457 C-233.74995461 455.34361259 -233.74995461 455.34361259 -233.49485779 453.65376282 C-228.21611493 419.04892765 -213.84553189 384.31793854 -193.14453125 356.109375 C-191.28356408 353.41114209 -190.03895613 351.08784727 -189 348 C-189.76183594 347.05640625 -190.52367187 346.1128125 -191.30859375 345.140625 C-196.79269355 338.32926587 -202.19976445 331.4823569 -207.4140625 324.4609375 C-210.77626768 319.94254822 -214.20627633 315.47566351 -217.625 311 C-222.99596518 303.96515535 -228.32875525 296.90374117 -233.625 289.8125 C-238.97858857 282.64819041 -244.42338027 275.56280875 -249.93310547 268.51806641 C-254.27676747 262.95556372 -258.53037296 257.33120776 -262.75170898 251.67553711 C-266.50734469 246.64614778 -270.3206901 241.66410601 -274.15625 236.6953125 C-277.87308638 231.87384112 -281.56038143 227.0298092 -285.25 222.1875 C-285.92385742 221.30360596 -286.59771484 220.41971191 -287.29199219 219.5090332 C-288.58580025 217.81046999 -289.87722939 216.11009152 -291.16601562 214.40771484 C-292.37110532 212.82563357 -293.5882665 211.25266143 -294.81835938 209.68994141 C-295.36814453 208.98401855 -295.91792969 208.2780957 -296.484375 207.55078125 C-296.97131836 206.93501221 -297.45826172 206.31924316 -297.95996094 205.68481445 C-299 204 -299 204 -299 201 C-298.34 201 -297.68 201 -297 201 C-296.67 200.01 -296.34 199.02 -296 198 C-291.01813229 200.55858885 -286.37746154 203.36245261 -281.875 206.69921875 C-276.25013803 210.83024945 -270.54808846 214.83714555 -264.8125 218.8125 C-263.80856201 219.50972168 -262.80462402 220.20694336 -261.77026367 220.92529297 C-255.49708695 225.27872404 -249.20941612 229.61052039 -242.91162109 233.92822266 C-236.88289393 238.067509 -230.89449484 242.26366839 -224.90673828 246.46191406 C-215.60648251 252.98142682 -206.28030306 259.46348433 -196.95410156 265.94580078 C-193.96586823 268.02373427 -190.97885136 270.10340516 -187.9921875 272.18359375 C-186.01566764 273.55995707 -184.03910564 274.93625988 -182.0625 276.3125 C-181.104646 276.97942871 -180.14679199 277.64635742 -179.15991211 278.33349609 C-173.5381855 282.24438905 -167.90132784 286.13204091 -162.25 290 C-156.08268449 294.22217285 -150.01026496 298.55596934 -144 303 C-140.93479291 301.56817991 -138.29899637 299.85930597 -135.5625 297.875 C-108.99739551 279.17961577 -78.36437704 264.69776611 -46.23950195 258.93920898 C-44.76450981 258.67393654 -44.76450981 258.67393654 -43.25971985 258.40330505 C-42.14115852 258.20366905 -42.14115852 258.20366905 -41 258 C-40.8365037 256.86006293 -40.8365037 256.86006293 -40.66970444 255.69709682 C-36.84002108 229.10166544 -32.66450131 202.56319041 -28.45844364 176.02507138 C-27.68955687 171.17240806 -26.92182812 166.31956179 -26.15407443 161.46671909 C-24.34578869 150.03703224 -22.53558907 138.6076497 -20.72412109 127.1784668 C-18.85759671 115.40169687 -16.99436237 103.62440963 -15.13267732 91.84687382 C-13.52593115 81.6828751 -11.91721426 71.51918966 -10.30689025 61.35575718 C-9.34838437 55.30610613 -8.39062429 49.25633943 -7.43476105 43.20627022 C-6.54068465 37.54783944 -5.64415442 31.88980296 -4.7456913 26.23206711 C-4.4162497 24.1548539 -4.08768744 22.07750102 -3.76005363 20.00000191 C-3.31417526 17.17361712 -2.86517134 14.34774652 -2.41534424 11.52198792 C-2.28548449 10.69401894 -2.15562474 9.86604996 -2.02182984 9.01299101 C-1.52459603 5.90663439 -0.99680222 2.99040665 0 0 Z M-129 326 C-129.55316895 326.45310547 -130.10633789 326.90621094 -130.67626953 327.37304688 C-144.69253434 338.88288303 -157.27726669 351.34729176 -168 366 C-169.15242188 367.57007813 -169.15242188 367.57007813 -170.328125 369.171875 C-204.07262937 416.60296156 -217.76653191 475.39187401 -208.54345703 532.91015625 C-200.72217133 577.37834664 -180.77644029 617.14324759 -149.36425781 649.58886719 C-148.07208084 650.92544251 -146.79720491 652.27868122 -145.5234375 653.6328125 C-138.91964959 660.49472893 -131.62037485 666.32092915 -124 672 C-123.36884277 672.47356934 -122.73768555 672.94713867 -122.08740234 673.43505859 C-118.88133479 676.08406339 -118.88133479 676.08406339 -115 677 C-115 677.66 -115 678.32 -115 679 C-100.69567872 687.31104717 -86.53221087 695.23324269 -71 701 C-70.2786084 701.27247559 -69.5572168 701.54495117 -68.81396484 701.82568359 C-35.35926305 714.28772882 1.76247527 717.51690858 37 712 C38.16257324 711.82259277 38.16257324 711.82259277 39.34863281 711.64160156 C92.55974209 703.16492303 142.0117552 672.13966899 174 629 C174.63566895 628.15550293 174.63566895 628.15550293 175.28417969 627.29394531 C209.67395733 581.48496403 223.76336067 523.91693331 216.47875977 467.22900391 C209.67417568 420.0949944 188.87485856 378.22588015 156 344 C155.1440625 343.1028125 154.288125 342.205625 153.40625 341.28125 C122.29091361 309.37818357 79.79734004 288.86907 36 282 C35.29488281 281.88430664 34.58976563 281.76861328 33.86328125 281.64941406 C-22.78090303 272.69580707 -84.87232124 289.34873051 -129 326 Z " fill="#FFFFFF" transform="translate(497,0)"/>
</svg>
