<?xml version="1.0" standalone="no"?>
<!DOCTYPE svg PUBLIC "-//W3C//DTD SVG 20010904//EN"
 "http://www.w3.org/TR/2001/REC-SVG-20010904/DTD/svg10.dtd">
<svg version="1.0" xmlns="http://www.w3.org/2000/svg"
 width="300.000000pt" height="300.000000pt" viewBox="0 0 300.000000 300.000000"
 preserveAspectRatio="xMidYMid meet">

<g transform="translate(0.000000,300.000000) scale(0.100000,-0.100000)"
fill="#000000" stroke="none">
<path d="M1374 2788 c-30 -27 -58 -69 -84 -122 -40 -84 -161 -389 -211 -536
-16 -46 -35 -90 -42 -98 -22 -21 -210 -49 -377 -56 -163 -7 -356 -28 -428 -47
-24 -7 -56 -24 -72 -39 -62 -58 -49 -132 39 -219 65 -64 191 -179 331 -301 52
-45 123 -109 158 -141 75 -71 76 -80 31 -249 -17 -63 -46 -173 -65 -245 -18
-71 -45 -172 -59 -224 -30 -113 -31 -152 -4 -207 28 -58 72 -84 141 -84 66 0
110 15 198 65 36 20 121 69 190 107 69 38 177 103 241 144 64 41 123 74 132
74 21 0 114 -57 277 -168 69 -47 176 -116 239 -154 l115 -68 113 0 113 0 30
53 c28 47 31 58 27 122 -2 39 -20 131 -40 205 -56 207 -127 507 -127 536 0 16
11 35 32 52 88 74 461 400 521 455 l67 62 0 91 c0 103 -8 116 -90 153 -68 30
-140 38 -482 56 -172 9 -323 21 -335 25 -34 14 -67 81 -126 255 -96 281 -163
430 -229 501 -40 44 -41 44 -109 44 -68 0 -71 -1 -115 -42z"/>
</g>
</svg>
