<svg id="svg" version="1.1" viewBox="0 0 300 300" width="300" height="300" xmlns="http://www.w3.org/2000/svg"><g xmlns="http://www.w3.org/2000/svg" id="svg" fill="#000000" fill-rule="evenodd" stroke="none" stroke-width="1" stroke-linecap="butt" stroke-linejoin="miter" stroke-miterlimit="10" stroke-dasharray="" stroke-dashoffset="0" font-family="none" font-weight="none" font-size="none" text-anchor="none" style="mix-blend-mode: normal"><path d="M0,150v150h150h150v-150v-150h-150h-150v150M155.09493,18.95676c6.26959,4.32162 7.10372,6.12162 27.35574,59.08378c4.58209,11.9848 8.65946,22.14932 9.0598,22.58919c0.40034,0.43885 18.70338,1.88007 40.67331,3.20169c33.96892,2.04527 40.62669,2.70203 44.50541,4.39155c6.38007,2.78007 8.61486,5.58953 8.61486,10.83243c0,5.98277 -4.69257,12.44696 -15.47331,21.31622c-4.74324,3.90203 -10.56588,8.69088 -12.93851,10.64189c-2.37264,1.95101 -7.15946,5.8277 -10.63581,8.61486c-3.47736,2.78716 -6.83209,5.54595 -7.45439,6.12973c-0.62331,0.5848 -3.59899,3.00304 -6.61216,5.37365c-3.01318,2.37162 -7.41892,6.01926 -9.78953,8.10709l-4.31149,3.79459l9.52804,36.43885c10.62568,40.63885 11.24088,43.82534 9.62128,49.84054c-2.46892,9.16723 -11.23682,10.86689 -23.33818,4.52331c-5.67264,-2.97264 -9.38209,-5.28243 -32.48108,-20.22568c-11.88649,-7.68953 -14.49122,-9.35777 -24.08716,-15.42264l-8.37872,-5.29662l-6.82399,4.34189c-6.42061,4.08446 -16.87703,10.82331 -29.62905,19.09561c-3.06588,1.98851 -6.36791,4.07635 -7.33784,4.63986c-0.96892,0.56351 -6.22703,3.85946 -11.68277,7.32466c-14.60169,9.27264 -23.04932,11.5723 -28.49595,7.75642c-2.91588,-2.04223 -5.18615,-7.26892 -5.18615,-11.94122c0,-3.21284 5.56115,-25.99054 16.10372,-65.96453l4.00946,-15.20068l-2.17703,-2.02905c-2.24696,-2.09392 -22.78986,-18.94561 -29.65541,-24.32635c-8.87432,-6.95473 -28.4473,-23.3777 -30.14899,-25.29628c-5.89459,-6.64764 -6.9902,-15.3598 -2.45777,-19.54561c5.26622,-4.86486 8.50642,-5.37264 50.31182,-7.89527c21.96588,-1.32568 40.25473,-2.77196 40.64088,-3.21486c0.66588,-0.76419 6.87264,-16.60642 19.77061,-50.46689c7.42095,-19.47973 11.98682,-28.25473 16.06014,-30.86554c3.90811,-2.50338 9.49257,-2.65439 12.8402,-0.34662"/></g></svg>